<?xml version="1.0" encoding="UTF-8" standalone="no"?>
<!DOCTYPE svg PUBLIC "-//W3C//DTD SVG 1.1//EN" "http://www.w3.org/Graphics/SVG/1.1/DTD/svg11.dtd">
<svg width="100%" height="100%" viewBox="0 0 1134 977" version="1.1" xmlns="http://www.w3.org/2000/svg" xmlns:xlink="http://www.w3.org/1999/xlink" xml:space="preserve" xmlns:serif="http://www.serif.com/" style="fill-rule:evenodd;clip-rule:evenodd;stroke-linejoin:round;stroke-miterlimit:2;">
    <g id="Artboard1" transform="matrix(0.983119,0,0,0.942884,-368.169,-536.62)">
        <rect x="374.491" y="569.126" width="1153.39" height="1035.52" style="fill:none;"/>
        <g transform="matrix(1.01717,0,0,1.06058,-25.7355,-97.0692)">
            <path d="M870.837,634.789L1517.98,821.958L1235.16,1591.94L514.535,1527.56L405.18,817.774L870.837,634.789Z" style="fill:rgb(238,165,25);"/>
        </g>
        <g transform="matrix(692.66,0,0,722.218,863.542,1288.67)">
            <path d="M0.508,-0.643C0.508,-0.617 0.496,-0.604 0.471,-0.604C0.462,-0.604 0.455,-0.607 0.449,-0.613C0.442,-0.618 0.439,-0.625 0.439,-0.632C0.439,-0.637 0.443,-0.645 0.452,-0.655C0.455,-0.66 0.456,-0.665 0.456,-0.668C0.456,-0.685 0.442,-0.693 0.414,-0.693C0.385,-0.693 0.361,-0.681 0.343,-0.656C0.325,-0.63 0.302,-0.58 0.275,-0.503L0.248,-0.427L0.351,-0.427C0.354,-0.428 0.359,-0.428 0.364,-0.428C0.371,-0.428 0.375,-0.424 0.375,-0.417C0.375,-0.41 0.37,-0.406 0.361,-0.406L0.244,-0.407L0.157,-0.169C0.094,0.002 0.033,0.122 -0.026,0.19C-0.05,0.217 -0.072,0.237 -0.093,0.248C-0.113,0.259 -0.137,0.264 -0.165,0.264C-0.222,0.264 -0.25,0.245 -0.25,0.207C-0.25,0.18 -0.235,0.166 -0.206,0.166C-0.186,0.166 -0.176,0.174 -0.176,0.191C-0.176,0.196 -0.179,0.203 -0.186,0.212C-0.19,0.217 -0.192,0.221 -0.192,0.225C-0.192,0.24 -0.182,0.247 -0.162,0.247C-0.127,0.247 -0.098,0.23 -0.073,0.197C-0.054,0.17 -0.028,0.113 0.003,0.024L0.154,-0.405L0.131,-0.405L0.081,-0.404C0.076,-0.403 0.07,-0.403 0.063,-0.403C0.055,-0.403 0.051,-0.406 0.051,-0.411C0.051,-0.421 0.059,-0.427 0.076,-0.429L0.148,-0.427L0.162,-0.427C0.202,-0.522 0.235,-0.587 0.26,-0.622C0.302,-0.679 0.355,-0.707 0.419,-0.707C0.446,-0.707 0.467,-0.701 0.484,-0.69C0.5,-0.678 0.508,-0.662 0.508,-0.643Z" style="fill:white;fill-rule:nonzero;"/>
        </g>
    </g>
</svg>
